<?xml version="1.0" standalone="no"?>
<!DOCTYPE svg PUBLIC "-//W3C//DTD SVG 20010904//EN"
 "http://www.w3.org/TR/2001/REC-SVG-20010904/DTD/svg10.dtd">
<svg version="1.0" xmlns="http://www.w3.org/2000/svg"
 width="1080.000000pt" height="1080.000000pt" viewBox="0 0 1080.000000 1080.000000"
 preserveAspectRatio="xMidYMid meet">

<g transform="translate(0.000000,1080.000000) scale(0.100000,-0.100000)"
fill="#495057" stroke="none">
<path d="M10433 9999 c-49 -15 -2353 -1401 -2392 -1439 -18 -18 -43 -54 -55
-79 -21 -45 -21 -56 -21 -606 l0 -560 27 -51 c15 -29 46 -68 69 -88 83 -70 2
-67 1334 -64 l1200 3 48 25 c57 29 102 76 131 139 21 46 21 46 21 1281 0 1232
0 1235 -21 1280 -48 104 -131 161 -244 166 -36 2 -80 -1 -97 -7z"/>
<path d="M6455 7722 c-67 -24 -2363 -1402 -2396 -1439 -15 -15 -37 -48 -50
-73 l-24 -45 -5 -1845 -5 -1845 -30 -53 c-32 -59 -66 -91 -129 -125 -40 -21
-52 -22 -387 -25 -330 -3 -348 -2 -402 18 -63 24 -125 79 -159 142 l-23 43 -5
1250 -5 1250 -30 53 c-32 58 -67 92 -126 122 -51 26 -133 35 -189 20 -56 -15
-2350 -1388 -2402 -1438 -20 -19 -47 -58 -60 -86 l-23 -51 0 -1545 0 -1545 23
-50 c28 -61 62 -98 122 -133 l45 -27 1225 0 1225 0 41 22 c22 12 57 40 78 63
73 81 70 58 76 620 5 493 6 506 27 545 29 54 87 110 142 137 45 23 52 23 401
23 354 0 355 0 404 -24 58 -29 108 -77 138 -134 23 -42 23 -47 28 -547 l5
-505 24 -45 c30 -58 76 -106 126 -133 l40 -22 1225 0 1225 0 46 27 c54 32 102
83 127 136 16 35 17 227 17 3552 l0 3515 -21 46 c-60 129 -213 197 -339 151z"/>
<path d="M8125 6506 c-66 -30 -131 -104 -150 -169 -13 -44 -15 -403 -15 -2927
0 -2524 2 -2883 15 -2927 18 -60 80 -135 139 -166 l41 -22 1204 -3 c1346 -3
1258 -7 1344 68 25 23 54 62 68 92 l24 53 0 2900 c0 2821 -1 2901 -19 2949
-23 60 -76 120 -130 149 l-41 22 -1215 2 -1215 3 -50 -24z"/>
</g>
</svg>
